HIERARCHY
ROOT Hips
{
	OFFSET	0.00	0.00	0.00
	CHANNELS 6 Xposition Yposition Zposition Zrotation Xrotation Yrotation
	JOINT LeftUpLeg
	{
		OFFSET	 0.126116	-0.014019	-0.065224
		CHANNELS 3 Zrotation Xrotation Yrotation
		JOINT LeftLeg
		{
			OFFSET	 0.000000	 0.000000	 0.569914
			CHANNELS 3 Zrotation Xrotation Yrotation
			JOINT LeftFoot
			{
				OFFSET	 0.000000	 0.000000	 0.544423
				CHANNELS 3 Zrotation Xrotation Yrotation
				JOINT LeftToeBase
				{
					OFFSET	 0.000000	 0.000000	 0.207117
					CHANNELS 3 Zrotation Xrotation Yrotation
					End Site
					{
						OFFSET	 0.000000	 0.000000	 0.207117
					}
				}
			}
		}
	}
	JOINT RightUpLeg
	{
		OFFSET	-0.124023	-0.008373	-0.065224
		CHANNELS 3 Zrotation Xrotation Yrotation
		JOINT RightLeg
		{
			OFFSET	 0.000000	 0.000000	 0.570047
			CHANNELS 3 Zrotation Xrotation Yrotation
			JOINT RightFoot
			{
				OFFSET	 0.000000	 0.000000	 0.544354
				CHANNELS 3 Zrotation Xrotation Yrotation
				JOINT RightToeBase
				{
					OFFSET	 0.000000	 0.000000	 0.207540
					CHANNELS 3 Zrotation Xrotation Yrotation
					End Site
					{
						OFFSET	 0.000000	 0.000000	 0.207540
					}
				}
			}
		}
	}
	JOINT Spine
	{
		OFFSET	 0.000184	-0.007763	 0.117403
		CHANNELS 3 Zrotation Xrotation Yrotation
		JOINT Spine1
		{
			OFFSET	 0.000000	 0.000000	 0.137269
			CHANNELS 3 Zrotation Xrotation Yrotation
			JOINT Spine2
			{
				OFFSET	 0.000000	 0.000000	 0.156879
				CHANNELS 3 Zrotation Xrotation Yrotation
				JOINT LeftShoulder
				{
					OFFSET	 0.080501	-0.002496	 0.160144
					CHANNELS 3 Zrotation Xrotation Yrotation
					JOINT LeftArm
					{
						OFFSET	 0.000000	 0.000000	 0.164363
						CHANNELS 3 Zrotation Xrotation Yrotation
						JOINT LeftForeArm
						{
							OFFSET	 0.000000	 0.000000	 0.364576
							CHANNELS 3 Zrotation Xrotation Yrotation
							JOINT LeftHand
							{
								OFFSET	 0.000000	 0.000000	 0.360812
								CHANNELS 3 Zrotation Xrotation Yrotation
								JOINT LeftHandIndex1
								{
									OFFSET	 0.000000	 0.000000	 0.086006
									CHANNELS 3 Zrotation Xrotation Yrotation
									JOINT LeftHandIndex2
									{
										OFFSET	 0.000000	 0.000000	 0.047236
										CHANNELS 3 Zrotation Xrotation Yrotation
										JOINT LeftHandIndex3
										{
											OFFSET	-0.004284	-0.000551	 0.038166
											CHANNELS 3 Zrotation Xrotation Yrotation
											End Site
											{
												OFFSET	-0.004284	-0.000551	 0.038166
											}
										}
									}
								}
							}
						}
					}
				}
				JOINT Neck
				{
					OFFSET	 0.000000	 0.000000	 0.176489
					CHANNELS 3 Zrotation Xrotation Yrotation
					JOINT Head
					{
						OFFSET	 0.000000	-0.001747	 0.077940
						CHANNELS 3 Zrotation Xrotation Yrotation
						End Site
						{
							OFFSET	 0.000000	-0.001747	 0.077940
						}
					}
				}
				JOINT RightShoulder
				{
					OFFSET	-0.080363	 0.000306	 0.159706
					CHANNELS 3 Zrotation Xrotation Yrotation
					JOINT RightArm
					{
						OFFSET	 0.000000	 0.000000	 0.164196
						CHANNELS 3 Zrotation Xrotation Yrotation
						JOINT RightForeArm
						{
							OFFSET	 0.000000	 0.000000	 0.365611
							CHANNELS 3 Zrotation Xrotation Yrotation
							JOINT RightHand
							{
								OFFSET	 0.000000	 0.000000	 0.360648
								CHANNELS 3 Zrotation Xrotation Yrotation
								JOINT RightHandIndex1
								{
									OFFSET	 0.000000	 0.000000	 0.069977
									CHANNELS 3 Zrotation Xrotation Yrotation
									JOINT RightHandIndex2
									{
										OFFSET	 0.000000	 0.000000	 0.052305
										CHANNELS 3 Zrotation Xrotation Yrotation
										JOINT RightHandIndex3
										{
											OFFSET	 0.009002	-0.000782	 0.042196
											CHANNELS 3 Zrotation Xrotation Yrotation
											End Site
											{
												OFFSET	 0.009002	-0.000782	 0.042196
											}
										}
									}
								}
							}
						}
					}
				}
			}
		}
	}
}
MOTION
Frames:    9
Frame Time: 0.03333334
 6.452973	 3.747513	 0.915529	 173.649800	-2.565694	-1.003248	 7.078249	 18.859910	-176.733900	-3.512609	-11.926490	 1.438578	 3.287190	 84.233500	-0.153640	-2.318556	 38.073700	-0.225144	 4.317883	-35.293470	-178.327900	 2.965832	-47.733460	 6.620863	 141.950600	 89.882970	-135.686500	 2.375356	 30.295630	 0.041797	-0.963533	 3.730657	 2.363221	-1.113343	-1.443507	 0.808608	-1.135166	-3.952319	-0.620498	-91.776180	 78.527420	-180.000000	 35.520550	 60.820760	-53.203740	-8.928546	-4.932127	-34.908780	-0.256940	-39.308410	-6.940094	-3.812334	 37.924440	-2.927599	-2.450526	 36.184240	 0.754587	-1.378229	 35.397820	-2.634230	 1.206274	 2.148603	-4.926179	 0.978815	-9.048416	 3.185650	 89.782120	 78.203930	 180.000000	-38.574650	 71.561770	 36.209500	-0.088280	-6.890162	 22.662920	-5.771875	-40.016960	 12.513220	 6.437017	 35.671460	-0.771858	 2.830251	 35.756010	-7.813440	-2.350882	 35.473990	 5.254307
 6.461834	 3.812317	 0.913175	 174.221300	-2.013751	-1.276868	 7.385090	 21.722330	-177.002400	-3.480843	-11.626990	 1.515622	 4.004740	 84.431690	-0.470562	-2.283278	 41.248130	-0.309611	 5.266457	-36.058710	-177.540100	 0.057975	-39.943940	 4.131607	 145.459100	 89.597000	-140.083300	 2.365248	 32.037740	 0.081058	-1.065039	 3.342261	 2.221826	-1.187154	-1.607928	 0.729744	-1.189913	-4.084370	-0.661734	-91.776180	 78.527400	-180.000000	 36.117610	 60.520490	-54.466500	-9.054794	-4.966231	-36.533140	-0.363709	-38.689110	-6.875187	-3.812334	 37.924440	-2.927599	-2.450526	 36.184240	 0.754587	-1.378229	 35.397820	-2.634230	 1.226600	 2.165023	-4.978493	 1.027251	-9.291413	 3.778142	 89.782120	 78.203870	 180.000000	-37.102760	 72.540910	 34.438190	 0.268363	-6.757385	 21.455940	-6.426999	-39.408750	 12.385830	 6.437017	 35.671460	-0.771858	 2.830251	 35.756010	-7.813440	-2.350882	 35.473990	 5.254307
 6.474595	 3.896051	 0.910358	 174.993500	-1.989163	-1.324017	 7.845516	 25.238890	-178.213600	-2.713622	-11.603160	 1.689987	 5.239234	 83.133190	-0.795747	-2.216746	 45.851220	-0.445330	 4.899777	-35.715780	-177.506000	 0.312633	-37.874630	 3.870305	 146.020800	 89.507030	-140.540500	 2.364299	 32.187970	 0.084498	-1.284046	 3.178725	 1.895322	-1.300273	-1.717735	 0.476565	-1.126737	-4.111171	-0.760585	-91.776180	 78.527420	-180.000000	 37.818860	 61.253410	-55.722400	-9.135373	-4.977334	-36.454230	-0.199418	-37.815220	-6.792472	-3.812334	 37.924440	-2.927599	-2.450526	 36.184240	 0.754587	-1.378229	 35.397820	-2.634230	 1.291115	 2.095589	-5.047686	 1.121292	-9.356380	 4.497064	 89.782120	 78.203870	 180.000000	-35.482420	 73.384690	 32.639790	 0.276788	-6.586711	 19.826630	-7.427322	-38.576370	 12.213560	 6.437017	 35.671460	-0.771858	 2.830251	 35.756010	-7.813440	-2.350882	 35.473990	 5.254307
 6.489242	 3.978598	 0.907678	 175.740400	-2.163886	-1.258501	 8.519369	 28.490920	 179.888900	-1.583326	-11.572590	 1.890365	 5.893427	 79.256030	-0.224185	-2.146455	 49.562290	-0.569774	 4.655001	-33.987930	-177.953700	 1.950278	-40.196470	 5.140102	 18.823360	 89.387700	-12.335330	 2.379096	 29.571080	 0.025781	-1.536670	 2.942316	 1.804484	-1.419011	-1.727975	 0.157812	-0.943643	-3.808253	-0.913915	-91.776180	 78.527400	-180.000000	 39.954090	 62.551480	-56.119660	-9.076229	-4.846397	-34.883610	-0.031765	-36.881390	-6.712385	-3.812334	 37.924440	-2.927599	-2.450526	 36.184240	 0.754587	-1.378229	 35.397820	-2.634230	 1.474458	 2.510939	-5.131514	 1.272836	-9.549151	 4.980768	 89.782120	 78.203870	 180.000000	-34.094360	 73.872860	 31.007390	 0.108257	-6.421050	 18.543840	-8.275656	-37.698250	 12.042340	 6.437017	 35.671460	-0.771858	 2.830251	 35.756010	-7.813440	-2.350882	 35.473990	 5.254307
 6.507020	 4.074821	 0.907393	 177.016700	-2.347246	-1.033718	 9.464577	 31.840540	 177.259400	-1.029468	-11.566890	 1.926260	 5.402631	 70.309850	 1.098669	-2.105225	 51.382230	-0.637083	 3.185541	-31.555440	-179.006100	 4.438530	-43.818760	 6.568532	 3.395380	 86.468810	 3.668284	 2.388582	 27.455480	-0.020059	-1.962550	 2.582844	 1.361057	-1.642518	-1.719943	-0.151914	-0.763086	-3.516542	-1.141814	-91.776180	 78.527420	-180.000000	 42.623990	 64.637190	-55.820540	-8.542005	-4.823458	-31.330800	 0.763278	-35.702260	-6.610116	-3.812334	 37.924440	-2.927599	-2.450526	 36.184240	 0.754587	-1.378229	 35.397820	-2.634230	 1.644273	 3.024336	-5.021899	 1.392591	-9.483114	 5.090936	 89.782120	 78.203930	 180.000000	-32.066750	 74.173510	 28.399900	 0.166816	-6.240377	 17.710270	-8.803333	-36.550870	 11.845160	 6.437017	 35.671460	-0.771858	 2.830251	 35.756010	-7.813440	-2.350882	 35.473990	 5.254307
 6.526152	 4.153175	 0.914279	 178.291200	-2.698670	-1.489021	 7.333180	 22.836500	 176.368900	-1.055064	-31.948200	 1.643551	 2.943377	 64.353500	 0.339674	-2.182341	 47.780150	-0.508055	 1.816918	-29.566210	-179.193600	 5.369797	-47.302860	 6.925308	 3.447885	 83.989470	 2.956392	 2.400459	 23.705160	-0.098454	-2.010443	 2.053487	 1.808042	-1.743756	-1.560349	-0.214885	-0.891246	-3.066072	-1.202725	-91.776180	 78.527420	-180.000000	 44.451490	 66.912980	-55.533240	-8.137178	-4.775705	-26.447650	 2.052524	-34.469330	-6.504072	-3.812334	 37.924440	-2.927599	-2.450526	 36.184240	 0.754587	-1.378229	 35.397820	-2.634230	 1.680494	 2.997934	-4.800266	 1.417716	-9.020243	 4.809661	 89.782090	 78.203890	-180.000000	-32.495030	 73.957370	 29.204770	 0.049193	-6.074162	 17.181260	-9.113362	-35.331280	 11.651950	 6.437017	 35.671460	-0.771858	 2.830251	 35.756010	-7.813440	-2.350882	 35.473990	 5.254307
 6.546505	 4.233108	 0.922702	 179.578000	-3.118506	 0.374539	 7.676695	 12.813550	 171.864900	-2.425577	-52.342950	-0.430434	 0.681290	 55.439540	 0.925075	-2.346839	 34.882720	-0.146064	 0.666833	-24.643270	 178.024900	 6.531676	-47.523220	 7.018853	 2.849011	 84.834040	 3.643017	 2.407517	 18.453940	-0.203628	-2.393126	 2.799568	-0.181025	-1.766404	-1.701550	-0.652080	-0.511201	-3.429363	-1.257896	-91.776180	 78.527400	-180.000000	 43.532880	 69.604370	-52.694990	-8.564210	-4.511889	-21.475690	 3.361972	-33.049460	-6.370974	-3.812334	 37.924440	-2.927599	-2.450526	 36.184240	 0.754587	-1.378229	 35.397820	-2.634230	 1.506559	 2.894114	-4.636593	 1.215707	-8.551637	 4.113153	 89.782120	 78.203870	 180.000000	-34.304550	 72.993350	 32.110830	-0.624655	-5.971791	 16.799070	-9.526387	-33.866720	 11.443780	 6.437017	 35.671460	-0.771858	 2.830251	 35.756010	-7.813440	-2.350882	 35.473990	 5.254307
 6.563337	 4.302670	 0.929825	-178.880500	-3.149476	 2.476831	 5.752491	 3.079193	 169.481000	-5.431707	-66.955090	-5.653770	-0.995359	 57.919300	 0.492166	-2.354027	 33.933330	-0.123479	 0.214119	-19.782650	 175.151100	 7.466857	-45.641830	 6.894135	 1.280624	 86.736680	 5.681516	 2.407685	 17.638860	-0.219592	-2.787682	 3.019461	-2.320911	-1.901276	-1.879690	-1.119675	-0.710033	-4.181411	-1.211232	-91.776180	 78.527400	-180.000000	 41.486140	 71.423100	-49.678010	-9.946341	-3.937274	-18.033240	 3.485479	-31.575510	-6.242608	-3.812334	 37.924440	-2.927599	-2.450526	 36.184240	 0.754587	-1.378229	 35.397820	-2.634230	 1.245152	 2.964505	-4.466105	 0.989873	-8.940169	 3.453032	 89.782090	 78.203890	-180.000000	-37.096640	 71.540500	 37.312070	-1.219113	-5.968369	 16.820760	-9.860977	-32.341090	 11.243090	 6.437017	 35.671460	-0.771858	 2.830251	 35.756010	-7.813440	-2.350882	 35.473990	 5.254307
 6.576632	 4.365344	 0.934307	-178.189500	-3.153572	 2.842520	 3.086335	-5.471617	 170.405600	-6.399480	-74.590520	-8.650024	-1.072025	 64.907910	 0.196070	-2.322014	 37.721290	-0.216149	 0.498823	-16.251140	 174.181900	 7.546451	-44.799860	 6.836594	-6.651344	 89.211180	 13.882220	 2.407652	 17.916820	-0.214158	-2.468143	 3.038190	-2.634441	-1.714873	-1.914400	-0.994367	-1.048630	-4.488393	-0.941520	-91.776180	 78.527400	 180.000000	 38.806440	 72.211580	-45.914890	-10.274700	-3.749651	-16.454790	 3.917706	-29.964190	-6.125272	-3.812334	 37.924440	-2.927599	-2.450526	 36.184240	 0.754587	-1.378229	 35.397820	-2.634230	 0.912239	 2.978957	-4.233464	 0.715099	-9.149580	 2.515702	 89.782120	 78.203870	 180.000000	-38.608040	 69.889640	 41.746800	-1.538217	-6.132856	 17.374220	-10.214650	-30.708440	 11.052330	 6.437017	 35.671460	-0.771858	 2.830251	 35.756010	-7.813440	-2.350882	 35.473990	 5.254307
